<?xml version="1.0" encoding="UTF-8" standalone="no"?>
<!DOCTYPE svg PUBLIC "-//W3C//DTD SVG 1.1//EN"
 "http://www.w3.org/Graphics/SVG/1.1/DTD/svg11.dtd">
<!-- Generated by graphviz version 2.26.3 (20100126.1600)
 -->
<!-- Title: controllers_diagram Pages: 1 -->
<svg width="902pt" height="991pt"
 viewBox="0.00 0.00 902.00 990.69" xmlns="http://www.w3.org/2000/svg" xmlns:xlink="http://www.w3.org/1999/xlink">
<g id="graph1" class="graph" transform="scale(1 1) rotate(0) translate(4 986.694)">
<title>controllers_diagram</title>
<polygon fill="white" stroke="white" points="-4,5 -4,-986.694 899,-986.694 899,5 -4,5"/>
<!-- _diagram_info -->
<g id="node1" class="node"><title>_diagram_info</title>
<text text-anchor="start" x="691" y="-185.3" font-family="Times Roman,serif" font-size="13.00">Controllers diagram</text>
<text text-anchor="start" x="691" y="-168.3" font-family="Times Roman,serif" font-size="13.00">Date: Dec 07 2012 &#45; 19:15</text>
<text text-anchor="start" x="691" y="-151.3" font-family="Times Roman,serif" font-size="13.00">Generated by RailRoady 1.1.0</text>
<text text-anchor="start" x="691" y="-134.3" font-family="Times Roman,serif" font-size="13.00">http://railroady.prestonlee.com</text>
</g>
<!-- HomeController -->
<g id="node2" class="node"><title>HomeController</title>
<polyline fill="none" stroke="black" points="15.3548,-501.676 116.355,-501.676 "/>
<path fill="none" stroke="black" d="M116.355,-501.676C122.355,-501.676 128.355,-507.676 128.355,-513.676"/>
<polyline fill="none" stroke="black" points="128.355,-513.676 128.355,-591.676 "/>
<path fill="none" stroke="black" d="M128.355,-591.676C128.355,-597.676 122.355,-603.676 116.355,-603.676"/>
<polyline fill="none" stroke="black" points="116.355,-603.676 15.3548,-603.676 "/>
<path fill="none" stroke="black" d="M15.3548,-603.676C9.35477,-603.676 3.35477,-597.676 3.35477,-591.676"/>
<polyline fill="none" stroke="black" points="3.35477,-591.676 3.35477,-513.676 "/>
<path fill="none" stroke="black" d="M3.35477,-513.676C3.35477,-507.676 9.35477,-501.676 15.3548,-501.676"/>
<text text-anchor="middle" x="65.8548" y="-587.076" font-family="Times Roman,serif" font-size="14.00">HomeController</text>
<polyline fill="none" stroke="black" points="3.35477,-577.676 128.355,-577.676 "/>
<text text-anchor="start" x="11.3548" y="-561.076" font-family="Times Roman,serif" font-size="14.00">index</text>
<polyline fill="none" stroke="black" points="3.35477,-551.676 128.355,-551.676 "/>
<polyline fill="none" stroke="black" points="3.35477,-527.676 128.355,-527.676 "/>
<text text-anchor="start" x="11.3548" y="-511.076" font-family="Times Roman,serif" font-size="14.00">_layout</text>
</g>
<!-- PagesController -->
<g id="node3" class="node"><title>PagesController</title>
<polyline fill="none" stroke="black" points="501.224,-464.771 602.224,-464.771 "/>
<path fill="none" stroke="black" d="M602.224,-464.771C608.224,-464.771 614.224,-470.771 614.224,-476.771"/>
<polyline fill="none" stroke="black" points="614.224,-476.771 614.224,-554.771 "/>
<path fill="none" stroke="black" d="M614.224,-554.771C614.224,-560.771 608.224,-566.771 602.224,-566.771"/>
<polyline fill="none" stroke="black" points="602.224,-566.771 501.224,-566.771 "/>
<path fill="none" stroke="black" d="M501.224,-566.771C495.224,-566.771 489.224,-560.771 489.224,-554.771"/>
<polyline fill="none" stroke="black" points="489.224,-554.771 489.224,-476.771 "/>
<path fill="none" stroke="black" d="M489.224,-476.771C489.224,-470.771 495.224,-464.771 501.224,-464.771"/>
<text text-anchor="middle" x="551.724" y="-550.171" font-family="Times Roman,serif" font-size="14.00">PagesController</text>
<polyline fill="none" stroke="black" points="489.224,-540.771 614.224,-540.771 "/>
<text text-anchor="start" x="497.224" y="-524.171" font-family="Times Roman,serif" font-size="14.00">contact</text>
<polyline fill="none" stroke="black" points="489.224,-514.771 614.224,-514.771 "/>
<polyline fill="none" stroke="black" points="489.224,-490.771 614.224,-490.771 "/>
<text text-anchor="start" x="497.224" y="-474.171" font-family="Times Roman,serif" font-size="14.00">_layout</text>
</g>
<!-- EventsController -->
<g id="node4" class="node"><title>EventsController</title>
<polyline fill="none" stroke="black" points="371.479,-1.5 594.479,-1.5 "/>
<path fill="none" stroke="black" d="M594.479,-1.5C600.479,-1.5 606.479,-7.5 606.479,-13.5"/>
<polyline fill="none" stroke="black" points="606.479,-13.5 606.479,-397.5 "/>
<path fill="none" stroke="black" d="M606.479,-397.5C606.479,-403.5 600.479,-409.5 594.479,-409.5"/>
<polyline fill="none" stroke="black" points="594.479,-409.5 371.479,-409.5 "/>
<path fill="none" stroke="black" d="M371.479,-409.5C365.479,-409.5 359.479,-403.5 359.479,-397.5"/>
<polyline fill="none" stroke="black" points="359.479,-397.5 359.479,-13.5 "/>
<path fill="none" stroke="black" d="M359.479,-13.5C359.479,-7.5 365.479,-1.5 371.479,-1.5"/>
<text text-anchor="middle" x="482.979" y="-392.9" font-family="Times Roman,serif" font-size="14.00">EventsController</text>
<polyline fill="none" stroke="black" points="359.479,-383.5 606.479,-383.5 "/>
<text text-anchor="start" x="367.479" y="-366.9" font-family="Times Roman,serif" font-size="14.00">_one_time_conditions_valid_220?</text>
<text text-anchor="start" x="367.479" y="-348.9" font-family="Times Roman,serif" font-size="14.00">_one_time_conditions_valid_224?</text>
<text text-anchor="start" x="367.479" y="-330.9" font-family="Times Roman,serif" font-size="14.00">_one_time_conditions_valid_228?</text>
<text text-anchor="start" x="367.479" y="-312.9" font-family="Times Roman,serif" font-size="14.00">_one_time_conditions_valid_232?</text>
<text text-anchor="start" x="367.479" y="-294.9" font-family="Times Roman,serif" font-size="14.00">certificate</text>
<text text-anchor="start" x="367.479" y="-276.9" font-family="Times Roman,serif" font-size="14.00">create</text>
<text text-anchor="start" x="367.479" y="-258.9" font-family="Times Roman,serif" font-size="14.00">destroy</text>
<text text-anchor="start" x="367.479" y="-240.9" font-family="Times Roman,serif" font-size="14.00">e_certificate</text>
<text text-anchor="start" x="367.479" y="-222.9" font-family="Times Roman,serif" font-size="14.00">edit</text>
<text text-anchor="start" x="367.479" y="-204.9" font-family="Times Roman,serif" font-size="14.00">index</text>
<text text-anchor="start" x="367.479" y="-186.9" font-family="Times Roman,serif" font-size="14.00">leave</text>
<text text-anchor="start" x="367.479" y="-168.9" font-family="Times Roman,serif" font-size="14.00">new</text>
<text text-anchor="start" x="367.479" y="-150.9" font-family="Times Roman,serif" font-size="14.00">participate</text>
<text text-anchor="start" x="367.479" y="-132.9" font-family="Times Roman,serif" font-size="14.00">publish</text>
<text text-anchor="start" x="367.479" y="-114.9" font-family="Times Roman,serif" font-size="14.00">update</text>
<polyline fill="none" stroke="black" points="359.479,-105.5 606.479,-105.5 "/>
<polyline fill="none" stroke="black" points="359.479,-81.5 606.479,-81.5 "/>
<text text-anchor="start" x="367.479" y="-64.9" font-family="Times Roman,serif" font-size="14.00">_layout</text>
<text text-anchor="start" x="367.479" y="-46.9" font-family="Times Roman,serif" font-size="14.00">get_event</text>
<text text-anchor="start" x="367.479" y="-28.9" font-family="Times Roman,serif" font-size="14.00">load_user</text>
<text text-anchor="start" x="367.479" y="-10.9" font-family="Times Roman,serif" font-size="14.00">un_wanted_assets_delete</text>
</g>
<!-- ServicesController -->
<g id="node5" class="node"><title>ServicesController</title>
<polyline fill="none" stroke="black" points="25.8455,-735.194 248.846,-735.194 "/>
<path fill="none" stroke="black" d="M248.846,-735.194C254.846,-735.194 260.846,-741.194 260.846,-747.194"/>
<polyline fill="none" stroke="black" points="260.846,-747.194 260.846,-969.194 "/>
<path fill="none" stroke="black" d="M260.846,-969.194C260.846,-975.194 254.846,-981.194 248.846,-981.194"/>
<polyline fill="none" stroke="black" points="248.846,-981.194 25.8455,-981.194 "/>
<path fill="none" stroke="black" d="M25.8455,-981.194C19.8455,-981.194 13.8455,-975.194 13.8455,-969.194"/>
<polyline fill="none" stroke="black" points="13.8455,-969.194 13.8455,-747.194 "/>
<path fill="none" stroke="black" d="M13.8455,-747.194C13.8455,-741.194 19.8455,-735.194 25.8455,-735.194"/>
<text text-anchor="middle" x="137.346" y="-964.594" font-family="Times Roman,serif" font-size="14.00">ServicesController</text>
<polyline fill="none" stroke="black" points="13.8455,-955.194 260.846,-955.194 "/>
<text text-anchor="start" x="21.8455" y="-938.594" font-family="Times Roman,serif" font-size="14.00">_one_time_conditions_valid_236?</text>
<text text-anchor="start" x="21.8455" y="-920.594" font-family="Times Roman,serif" font-size="14.00">_one_time_conditions_valid_240?</text>
<text text-anchor="start" x="21.8455" y="-902.594" font-family="Times Roman,serif" font-size="14.00">_one_time_conditions_valid_244?</text>
<text text-anchor="start" x="21.8455" y="-884.594" font-family="Times Roman,serif" font-size="14.00">create</text>
<text text-anchor="start" x="21.8455" y="-866.594" font-family="Times Roman,serif" font-size="14.00">failure</text>
<text text-anchor="start" x="21.8455" y="-848.594" font-family="Times Roman,serif" font-size="14.00">signout</text>
<polyline fill="none" stroke="black" points="13.8455,-839.194 260.846,-839.194 "/>
<polyline fill="none" stroke="black" points="13.8455,-815.194 260.846,-815.194 "/>
<text text-anchor="start" x="21.8455" y="-798.594" font-family="Times Roman,serif" font-size="14.00">_layout</text>
<text text-anchor="start" x="21.8455" y="-780.594" font-family="Times Roman,serif" font-size="14.00">extract_facebook</text>
<text text-anchor="start" x="21.8455" y="-762.594" font-family="Times Roman,serif" font-size="14.00">extract_twitter</text>
<text text-anchor="start" x="21.8455" y="-744.594" font-family="Times Roman,serif" font-size="14.00">validate_callback!</text>
</g>
<!-- AssetsController -->
<g id="node6" class="node"><title>AssetsController</title>
<polyline fill="none" stroke="black" points="383.363,-738.957 606.363,-738.957 "/>
<path fill="none" stroke="black" d="M606.363,-738.957C612.363,-738.957 618.363,-744.957 618.363,-750.957"/>
<polyline fill="none" stroke="black" points="618.363,-750.957 618.363,-936.957 "/>
<path fill="none" stroke="black" d="M618.363,-936.957C618.363,-942.957 612.363,-948.957 606.363,-948.957"/>
<polyline fill="none" stroke="black" points="606.363,-948.957 383.363,-948.957 "/>
<path fill="none" stroke="black" d="M383.363,-948.957C377.363,-948.957 371.363,-942.957 371.363,-936.957"/>
<polyline fill="none" stroke="black" points="371.363,-936.957 371.363,-750.957 "/>
<path fill="none" stroke="black" d="M371.363,-750.957C371.363,-744.957 377.363,-738.957 383.363,-738.957"/>
<text text-anchor="middle" x="494.863" y="-932.357" font-family="Times Roman,serif" font-size="14.00">AssetsController</text>
<polyline fill="none" stroke="black" points="371.363,-922.957 618.363,-922.957 "/>
<text text-anchor="start" x="379.363" y="-906.357" font-family="Times Roman,serif" font-size="14.00">_callback_before_251</text>
<text text-anchor="start" x="379.363" y="-888.357" font-family="Times Roman,serif" font-size="14.00">_one_time_conditions_valid_248?</text>
<text text-anchor="start" x="379.363" y="-870.357" font-family="Times Roman,serif" font-size="14.00">_one_time_conditions_valid_252?</text>
<text text-anchor="start" x="379.363" y="-852.357" font-family="Times Roman,serif" font-size="14.00">create</text>
<text text-anchor="start" x="379.363" y="-834.357" font-family="Times Roman,serif" font-size="14.00">destroy</text>
<text text-anchor="start" x="379.363" y="-816.357" font-family="Times Roman,serif" font-size="14.00">new</text>
<text text-anchor="start" x="379.363" y="-798.357" font-family="Times Roman,serif" font-size="14.00">show</text>
<polyline fill="none" stroke="black" points="371.363,-788.957 618.363,-788.957 "/>
<polyline fill="none" stroke="black" points="371.363,-764.957 618.363,-764.957 "/>
<text text-anchor="start" x="379.363" y="-748.357" font-family="Times Roman,serif" font-size="14.00">_layout</text>
</g>
<!-- ApplicationController -->
<g id="node7" class="node"><title>ApplicationController</title>
<polyline fill="none" stroke="black" points="196.43,-436.142 419.43,-436.142 "/>
<path fill="none" stroke="black" d="M419.43,-436.142C425.43,-436.142 431.43,-442.142 431.43,-448.142"/>
<polyline fill="none" stroke="black" points="431.43,-448.142 431.43,-616.142 "/>
<path fill="none" stroke="black" d="M431.43,-616.142C431.43,-622.142 425.43,-628.142 419.43,-628.142"/>
<polyline fill="none" stroke="black" points="419.43,-628.142 196.43,-628.142 "/>
<path fill="none" stroke="black" d="M196.43,-628.142C190.43,-628.142 184.43,-622.142 184.43,-616.142"/>
<polyline fill="none" stroke="black" points="184.43,-616.142 184.43,-448.142 "/>
<path fill="none" stroke="black" d="M184.43,-448.142C184.43,-442.142 190.43,-436.142 196.43,-436.142"/>
<text text-anchor="middle" x="307.93" y="-611.542" font-family="Times Roman,serif" font-size="14.00">ApplicationController</text>
<polyline fill="none" stroke="black" points="184.43,-602.142 431.43,-602.142 "/>
<text text-anchor="start" x="192.43" y="-585.542" font-family="Times Roman,serif" font-size="14.00">_one_time_conditions_valid_218?</text>
<polyline fill="none" stroke="black" points="184.43,-576.142 431.43,-576.142 "/>
<polyline fill="none" stroke="black" points="184.43,-552.142 431.43,-552.142 "/>
<text text-anchor="start" x="192.43" y="-535.542" font-family="Times Roman,serif" font-size="14.00">_layout</text>
<text text-anchor="start" x="192.43" y="-517.542" font-family="Times Roman,serif" font-size="14.00">authenticate_user!</text>
<text text-anchor="start" x="192.43" y="-499.542" font-family="Times Roman,serif" font-size="14.00">current_user</text>
<text text-anchor="start" x="192.43" y="-481.542" font-family="Times Roman,serif" font-size="14.00">invalid_url!</text>
<text text-anchor="start" x="192.43" y="-463.542" font-family="Times Roman,serif" font-size="14.00">my_profile?</text>
<text text-anchor="start" x="192.43" y="-445.542" font-family="Times Roman,serif" font-size="14.00">user_signed_in?</text>
</g>
<!-- ApplicationController&#45;&gt;HomeController -->
<g id="edge2" class="edge"><title>ApplicationController&#45;&gt;HomeController</title>
<path fill="none" stroke="black" d="M184.41,-542.62C165.061,-544.261 145.796,-545.895 128.595,-547.354"/>
</g>
<!-- ApplicationController&#45;&gt;PagesController -->
<g id="edge4" class="edge"><title>ApplicationController&#45;&gt;PagesController</title>
<path fill="none" stroke="black" d="M431.613,-523.837C451.532,-522.499 471.388,-521.166 489.052,-519.979"/>
</g>
<!-- ApplicationController&#45;&gt;EventsController -->
<g id="edge6" class="edge"><title>ApplicationController&#45;&gt;EventsController</title>
<path fill="none" stroke="black" d="M359.503,-435.905C364.042,-427.437 368.736,-418.677 373.524,-409.743"/>
</g>
<!-- ApplicationController&#45;&gt;ServicesController -->
<g id="edge8" class="edge"><title>ApplicationController&#45;&gt;ServicesController</title>
<path fill="none" stroke="black" d="M257.672,-628.205C240.178,-661.642 220.305,-699.627 201.821,-734.957"/>
</g>
<!-- ApplicationController&#45;&gt;AssetsController -->
<g id="edge10" class="edge"><title>ApplicationController&#45;&gt;AssetsController</title>
<path fill="none" stroke="black" d="M365.541,-628.241C386.568,-663.314 410.447,-703.146 431.914,-738.954"/>
</g>
<!-- AccountController -->
<g id="node8" class="node"><title>AccountController</title>
<polyline fill="none" stroke="black" points="13,-114.154 236,-114.154 "/>
<path fill="none" stroke="black" d="M236,-114.154C242,-114.154 248,-120.154 248,-126.154"/>
<polyline fill="none" stroke="black" points="248,-126.154 248,-312.154 "/>
<path fill="none" stroke="black" d="M248,-312.154C248,-318.154 242,-324.154 236,-324.154"/>
<polyline fill="none" stroke="black" points="236,-324.154 13,-324.154 "/>
<path fill="none" stroke="black" d="M13,-324.154C7,-324.154 1,-318.154 1,-312.154"/>
<polyline fill="none" stroke="black" points="1,-312.154 1,-126.154 "/>
<path fill="none" stroke="black" d="M1,-126.154C1,-120.154 7,-114.154 13,-114.154"/>
<text text-anchor="middle" x="124.5" y="-307.554" font-family="Times Roman,serif" font-size="14.00">AccountController</text>
<polyline fill="none" stroke="black" points="1,-298.154 248,-298.154 "/>
<text text-anchor="start" x="9" y="-281.554" font-family="Times Roman,serif" font-size="14.00">_one_time_conditions_valid_254?</text>
<text text-anchor="start" x="9" y="-263.554" font-family="Times Roman,serif" font-size="14.00">_one_time_conditions_valid_258?</text>
<text text-anchor="start" x="9" y="-245.554" font-family="Times Roman,serif" font-size="14.00">edit</text>
<text text-anchor="start" x="9" y="-227.554" font-family="Times Roman,serif" font-size="14.00">profile</text>
<text text-anchor="start" x="9" y="-209.554" font-family="Times Roman,serif" font-size="14.00">show</text>
<text text-anchor="start" x="9" y="-191.554" font-family="Times Roman,serif" font-size="14.00">update</text>
<polyline fill="none" stroke="black" points="1,-182.154 248,-182.154 "/>
<polyline fill="none" stroke="black" points="1,-158.154 248,-158.154 "/>
<text text-anchor="start" x="9" y="-141.554" font-family="Times Roman,serif" font-size="14.00">_layout</text>
<text text-anchor="start" x="9" y="-123.554" font-family="Times Roman,serif" font-size="14.00">load_user</text>
</g>
<!-- ApplicationController&#45;&gt;AccountController -->
<g id="edge12" class="edge"><title>ApplicationController&#45;&gt;AccountController</title>
<path fill="none" stroke="black" d="M251.648,-436.108C230.902,-400.708 207.297,-360.431 186.104,-324.27"/>
</g>
</g>
</svg>
