<?xml version="1.0" encoding="UTF-8" standalone="no"?>
<!DOCTYPE svg PUBLIC "-//W3C//DTD SVG 1.1//EN"
 "http://www.w3.org/Graphics/SVG/1.1/DTD/svg11.dtd">
<!-- Generated by graphviz version 2.26.3 (20100126.1600)
 -->
<!-- Title: models_diagram Pages: 1 -->
<svg width="819pt" height="1418pt"
 viewBox="0.00 0.00 819.00 1418.00" xmlns="http://www.w3.org/2000/svg" xmlns:xlink="http://www.w3.org/1999/xlink">
<g id="graph1" class="graph" transform="scale(1 1) rotate(0) translate(4 1414)">
<title>models_diagram</title>
<polygon fill="white" stroke="white" points="-4,5 -4,-1414 816,-1414 816,5 -4,5"/>
<!-- _diagram_info -->
<g id="node1" class="node"><title>_diagram_info</title>
<text text-anchor="start" x="129" y="-1234.3" font-family="Times Roman,serif" font-size="13.00">Models diagram</text>
<text text-anchor="start" x="129" y="-1217.3" font-family="Times Roman,serif" font-size="13.00">Date: Dec 07 2012 &#45; 19:15</text>
<text text-anchor="start" x="129" y="-1200.3" font-family="Times Roman,serif" font-size="13.00">Generated by RailRoady 1.1.0</text>
<text text-anchor="start" x="129" y="-1183.3" font-family="Times Roman,serif" font-size="13.00">http://railroady.prestonlee.com</text>
</g>
<!-- User -->
<g id="node2" class="node"><title>User</title>
<polyline fill="none" stroke="black" points="360.5,-1015 555.5,-1015 "/>
<path fill="none" stroke="black" d="M555.5,-1015C561.5,-1015 567.5,-1021 567.5,-1027"/>
<polyline fill="none" stroke="black" points="567.5,-1027 567.5,-1397 "/>
<path fill="none" stroke="black" d="M567.5,-1397C567.5,-1403 561.5,-1409 555.5,-1409"/>
<polyline fill="none" stroke="black" points="555.5,-1409 360.5,-1409 "/>
<path fill="none" stroke="black" d="M360.5,-1409C354.5,-1409 348.5,-1403 348.5,-1397"/>
<polyline fill="none" stroke="black" points="348.5,-1397 348.5,-1027 "/>
<path fill="none" stroke="black" d="M348.5,-1027C348.5,-1021 354.5,-1015 360.5,-1015"/>
<text text-anchor="middle" x="458" y="-1392.4" font-family="Times Roman,serif" font-size="14.00">User</text>
<polyline fill="none" stroke="black" points="348.5,-1383 567.5,-1383 "/>
<text text-anchor="start" x="356.5" y="-1366.4" font-family="Times Roman,serif" font-size="14.00">_id :Moped::BSON::ObjectId</text>
<text text-anchor="start" x="356.5" y="-1348.4" font-family="Times Roman,serif" font-size="14.00">_slugs :Array</text>
<text text-anchor="start" x="356.5" y="-1330.4" font-family="Times Roman,serif" font-size="14.00">_type :String</text>
<text text-anchor="start" x="356.5" y="-1312.4" font-family="Times Roman,serif" font-size="14.00">about :Object</text>
<text text-anchor="start" x="356.5" y="-1294.4" font-family="Times Roman,serif" font-size="14.00">address :Object</text>
<text text-anchor="start" x="356.5" y="-1276.4" font-family="Times Roman,serif" font-size="14.00">created_at :Time</text>
<text text-anchor="start" x="356.5" y="-1258.4" font-family="Times Roman,serif" font-size="14.00">dob :Date</text>
<text text-anchor="start" x="356.5" y="-1240.4" font-family="Times Roman,serif" font-size="14.00">education :Object</text>
<text text-anchor="start" x="356.5" y="-1222.4" font-family="Times Roman,serif" font-size="14.00">email :Object</text>
<text text-anchor="start" x="356.5" y="-1204.4" font-family="Times Roman,serif" font-size="14.00">job_title :Object</text>
<text text-anchor="start" x="356.5" y="-1186.4" font-family="Times Roman,serif" font-size="14.00">mobile :Object</text>
<text text-anchor="start" x="356.5" y="-1168.4" font-family="Times Roman,serif" font-size="14.00">name :Object</text>
<text text-anchor="start" x="356.5" y="-1150.4" font-family="Times Roman,serif" font-size="14.00">organizer_ids :Array</text>
<text text-anchor="start" x="356.5" y="-1132.4" font-family="Times Roman,serif" font-size="14.00">participated_event_ids :Array</text>
<text text-anchor="start" x="356.5" y="-1114.4" font-family="Times Roman,serif" font-size="14.00">photo_content_type :String</text>
<text text-anchor="start" x="356.5" y="-1096.4" font-family="Times Roman,serif" font-size="14.00">photo_file_name :String</text>
<text text-anchor="start" x="356.5" y="-1078.4" font-family="Times Roman,serif" font-size="14.00">photo_file_size :Integer</text>
<text text-anchor="start" x="356.5" y="-1060.4" font-family="Times Roman,serif" font-size="14.00">photo_updated_at :DateTime</text>
<text text-anchor="start" x="356.5" y="-1042.4" font-family="Times Roman,serif" font-size="14.00">updated_at :Time</text>
<text text-anchor="start" x="356.5" y="-1024.4" font-family="Times Roman,serif" font-size="14.00">website :Object</text>
</g>
<!-- Organizer -->
<g id="node5" class="node"><title>Organizer</title>
<polyline fill="none" stroke="black" points="12,-797 194,-797 "/>
<path fill="none" stroke="black" d="M194,-797C200,-797 206,-803 206,-809"/>
<polyline fill="none" stroke="black" points="206,-809 206,-945 "/>
<path fill="none" stroke="black" d="M206,-945C206,-951 200,-957 194,-957"/>
<polyline fill="none" stroke="black" points="194,-957 12,-957 "/>
<path fill="none" stroke="black" d="M12,-957C6,-957 0,-951 0,-945"/>
<polyline fill="none" stroke="black" points="0,-945 0,-809 "/>
<path fill="none" stroke="black" d="M0,-809C0,-803 6,-797 12,-797"/>
<text text-anchor="middle" x="103" y="-940.4" font-family="Times Roman,serif" font-size="14.00">Organizer</text>
<polyline fill="none" stroke="black" points="0,-931 206,-931 "/>
<text text-anchor="start" x="8" y="-914.4" font-family="Times Roman,serif" font-size="14.00">_id :Moped::BSON::ObjectId</text>
<text text-anchor="start" x="8" y="-896.4" font-family="Times Roman,serif" font-size="14.00">_type :String</text>
<text text-anchor="start" x="8" y="-878.4" font-family="Times Roman,serif" font-size="14.00">description :Object</text>
<text text-anchor="start" x="8" y="-860.4" font-family="Times Roman,serif" font-size="14.00">email :Object</text>
<text text-anchor="start" x="8" y="-842.4" font-family="Times Roman,serif" font-size="14.00">mobile :Object</text>
<text text-anchor="start" x="8" y="-824.4" font-family="Times Roman,serif" font-size="14.00">name :Object</text>
<text text-anchor="start" x="8" y="-806.4" font-family="Times Roman,serif" font-size="14.00">user_ids :Array</text>
</g>
<!-- User&#45;&gt;Organizer -->
<g id="edge6" class="edge"><title>User&#45;&gt;Organizer</title>
<path fill="none" stroke="#a3b2fb" d="M340.531,-1014.42C340.354,-1014.28 340.177,-1014.14 340,-1014 294.28,-978.205 265.691,-1004.32 215,-976 208.071,-972.129 201.198,-967.769 194.468,-963.093"/>
<polygon fill="#a3b2fb" stroke="#a3b2fb" points="340.658,-1014.52 345.469,-1024.38 344.503,-1017.72 348.347,-1020.92 348.347,-1020.92 348.347,-1020.92 344.503,-1017.72 351.224,-1017.46 340.658,-1014.52 340.658,-1014.52"/>
<polygon fill="#a3b2fb" stroke="#a3b2fb" points="194.141,-962.858 188.655,-953.363 190.083,-959.936 186.026,-957.015 186.026,-957.015 186.026,-957.015 190.083,-959.936 183.396,-960.666 194.141,-962.858 194.141,-962.858"/>
</g>
<!-- Service -->
<g id="node6" class="node"><title>Service</title>
<polyline fill="none" stroke="black" points="236,-779 418,-779 "/>
<path fill="none" stroke="black" d="M418,-779C424,-779 430,-785 430,-791"/>
<polyline fill="none" stroke="black" points="430,-791 430,-963 "/>
<path fill="none" stroke="black" d="M430,-963C430,-969 424,-975 418,-975"/>
<polyline fill="none" stroke="black" points="418,-975 236,-975 "/>
<path fill="none" stroke="black" d="M236,-975C230,-975 224,-969 224,-963"/>
<polyline fill="none" stroke="black" points="224,-963 224,-791 "/>
<path fill="none" stroke="black" d="M224,-791C224,-785 230,-779 236,-779"/>
<text text-anchor="middle" x="327" y="-958.4" font-family="Times Roman,serif" font-size="14.00">Service</text>
<polyline fill="none" stroke="black" points="224,-949 430,-949 "/>
<text text-anchor="start" x="232" y="-932.4" font-family="Times Roman,serif" font-size="14.00">_id :Moped::BSON::ObjectId</text>
<text text-anchor="start" x="232" y="-914.4" font-family="Times Roman,serif" font-size="14.00">_type :String</text>
<text text-anchor="start" x="232" y="-896.4" font-family="Times Roman,serif" font-size="14.00">image_url :Object</text>
<text text-anchor="start" x="232" y="-878.4" font-family="Times Roman,serif" font-size="14.00">provider :Object</text>
<text text-anchor="start" x="232" y="-860.4" font-family="Times Roman,serif" font-size="14.00">screen_name :Object</text>
<text text-anchor="start" x="232" y="-842.4" font-family="Times Roman,serif" font-size="14.00">uemail :Object</text>
<text text-anchor="start" x="232" y="-824.4" font-family="Times Roman,serif" font-size="14.00">uid :Object</text>
<text text-anchor="start" x="232" y="-806.4" font-family="Times Roman,serif" font-size="14.00">uname :Object</text>
<text text-anchor="start" x="232" y="-788.4" font-family="Times Roman,serif" font-size="14.00">user_id :Object</text>
</g>
<!-- User&#45;&gt;Service -->
<g id="edge2" class="edge"><title>User&#45;&gt;Service</title>
<path fill="none" stroke="#a007ad" d="M377.894,-1007.15C374.971,-999.673 372.089,-992.303 369.273,-985.101"/>
<ellipse fill="none" stroke="#a007ad" cx="379.393" cy="-1010.98" rx="4.00001" ry="4.00001"/>
<polygon fill="#a007ad" stroke="#a007ad" points="369.117,-984.704 369.666,-973.752 367.296,-980.048 365.475,-975.391 365.475,-975.391 365.475,-975.391 367.296,-980.048 361.284,-977.03 369.117,-984.704 369.117,-984.704"/>
</g>
<!-- Event -->
<g id="node7" class="node"><title>Event</title>
<polyline fill="none" stroke="black" points="386.5,-255 575.5,-255 "/>
<path fill="none" stroke="black" d="M575.5,-255C581.5,-255 587.5,-261 587.5,-267"/>
<polyline fill="none" stroke="black" points="587.5,-267 587.5,-727 "/>
<path fill="none" stroke="black" d="M587.5,-727C587.5,-733 581.5,-739 575.5,-739"/>
<polyline fill="none" stroke="black" points="575.5,-739 386.5,-739 "/>
<path fill="none" stroke="black" d="M386.5,-739C380.5,-739 374.5,-733 374.5,-727"/>
<polyline fill="none" stroke="black" points="374.5,-727 374.5,-267 "/>
<path fill="none" stroke="black" d="M374.5,-267C374.5,-261 380.5,-255 386.5,-255"/>
<text text-anchor="middle" x="481" y="-722.4" font-family="Times Roman,serif" font-size="14.00">Event</text>
<polyline fill="none" stroke="black" points="374.5,-713 587.5,-713 "/>
<text text-anchor="start" x="382.5" y="-696.4" font-family="Times Roman,serif" font-size="14.00">_id :Moped::BSON::ObjectId</text>
<text text-anchor="start" x="382.5" y="-678.4" font-family="Times Roman,serif" font-size="14.00">_slugs :Array</text>
<text text-anchor="start" x="382.5" y="-660.4" font-family="Times Roman,serif" font-size="14.00">_type :String</text>
<text text-anchor="start" x="382.5" y="-642.4" font-family="Times Roman,serif" font-size="14.00">created_at :Time</text>
<text text-anchor="start" x="382.5" y="-624.4" font-family="Times Roman,serif" font-size="14.00">description :Object</text>
<text text-anchor="start" x="382.5" y="-606.4" font-family="Times Roman,serif" font-size="14.00">end_date :Time</text>
<text text-anchor="start" x="382.5" y="-588.4" font-family="Times Roman,serif" font-size="14.00">featured :Boolean</text>
<text text-anchor="start" x="382.5" y="-570.4" font-family="Times Roman,serif" font-size="14.00">lat :Object</text>
<text text-anchor="start" x="382.5" y="-552.4" font-family="Times Roman,serif" font-size="14.00">lng :Object</text>
<text text-anchor="start" x="382.5" y="-534.4" font-family="Times Roman,serif" font-size="14.00">location :Object</text>
<text text-anchor="start" x="382.5" y="-516.4" font-family="Times Roman,serif" font-size="14.00">logo_content_type :String</text>
<text text-anchor="start" x="382.5" y="-498.4" font-family="Times Roman,serif" font-size="14.00">logo_file_name :String</text>
<text text-anchor="start" x="382.5" y="-480.4" font-family="Times Roman,serif" font-size="14.00">logo_file_size :Integer</text>
<text text-anchor="start" x="382.5" y="-462.4" font-family="Times Roman,serif" font-size="14.00">logo_updated_at :DateTime</text>
<text text-anchor="start" x="382.5" y="-444.4" font-family="Times Roman,serif" font-size="14.00">name :Object</text>
<text text-anchor="start" x="382.5" y="-426.4" font-family="Times Roman,serif" font-size="14.00">organizer_id :Object</text>
<text text-anchor="start" x="382.5" y="-408.4" font-family="Times Roman,serif" font-size="14.00">organizer_mobile_no :Object</text>
<text text-anchor="start" x="382.5" y="-390.4" font-family="Times Roman,serif" font-size="14.00">organizer_name :Object</text>
<text text-anchor="start" x="382.5" y="-372.4" font-family="Times Roman,serif" font-size="14.00">participant_ids :Array</text>
<text text-anchor="start" x="382.5" y="-354.4" font-family="Times Roman,serif" font-size="14.00">published :Boolean</text>
<text text-anchor="start" x="382.5" y="-336.4" font-family="Times Roman,serif" font-size="14.00">short_desc :Object</text>
<text text-anchor="start" x="382.5" y="-318.4" font-family="Times Roman,serif" font-size="14.00">start_date :Time</text>
<text text-anchor="start" x="382.5" y="-300.4" font-family="Times Roman,serif" font-size="14.00">unique_identifier :String</text>
<text text-anchor="start" x="382.5" y="-282.4" font-family="Times Roman,serif" font-size="14.00">updated_at :Time</text>
<text text-anchor="start" x="382.5" y="-264.4" font-family="Times Roman,serif" font-size="14.00">user_id :Object</text>
</g>
<!-- User&#45;&gt;Event -->
<g id="edge4" class="edge"><title>User&#45;&gt;Event</title>
<path fill="none" stroke="#404dcb" d="M464.604,-1006.69C467.185,-926.462 470.17,-833.657 472.881,-749.4"/>
<ellipse fill="none" stroke="#404dcb" cx="464.474" cy="-1010.73" rx="4" ry="4"/>
<polygon fill="#404dcb" stroke="#404dcb" points="472.888,-749.163 477.708,-739.313 473.049,-744.166 473.21,-739.169 473.21,-739.169 473.21,-739.169 473.049,-744.166 468.712,-739.024 472.888,-749.163 472.888,-749.163"/>
</g>
<!-- User&#45;&gt;Event -->
<g id="edge8" class="edge"><title>User&#45;&gt;Event</title>
<path fill="none" stroke="#258427" d="M480.061,-1004.64C480.784,-994.967 481.437,-985.382 482,-976 486.412,-902.466 487.651,-822.469 487.385,-749.285"/>
<polygon fill="#258427" stroke="#258427" points="480.05,-1004.79 474.796,-1014.41 479.666,-1009.77 479.283,-1014.76 479.283,-1014.76 479.283,-1014.76 479.666,-1009.77 483.769,-1015.1 480.05,-1004.79 480.05,-1004.79"/>
<polygon fill="#258427" stroke="#258427" points="487.384,-749.005 491.837,-738.984 487.36,-744.005 487.337,-739.005 487.337,-739.005 487.337,-739.005 487.36,-744.005 482.837,-739.026 487.384,-749.005 487.384,-749.005"/>
<text text-anchor="middle" x="555" y="-873.4" font-family="Times Roman,serif" font-size="14.00">participated_events</text>
</g>
<!-- Asset -->
<g id="node3" class="node"><title>Asset</title>
<polyline fill="none" stroke="black" points="364,-1 598,-1 "/>
<path fill="none" stroke="black" d="M598,-1C604,-1 610,-7 610,-13"/>
<polyline fill="none" stroke="black" points="610,-13 610,-203 "/>
<path fill="none" stroke="black" d="M610,-203C610,-209 604,-215 598,-215"/>
<polyline fill="none" stroke="black" points="598,-215 364,-215 "/>
<path fill="none" stroke="black" d="M364,-215C358,-215 352,-209 352,-203"/>
<polyline fill="none" stroke="black" points="352,-203 352,-13 "/>
<path fill="none" stroke="black" d="M352,-13C352,-7 358,-1 364,-1"/>
<text text-anchor="middle" x="481" y="-198.4" font-family="Times Roman,serif" font-size="14.00">Asset</text>
<polyline fill="none" stroke="black" points="352,-189 610,-189 "/>
<text text-anchor="start" x="360" y="-172.4" font-family="Times Roman,serif" font-size="14.00">_id :Moped::BSON::ObjectId</text>
<text text-anchor="start" x="360" y="-154.4" font-family="Times Roman,serif" font-size="14.00">_type :String</text>
<text text-anchor="start" x="360" y="-136.4" font-family="Times Roman,serif" font-size="14.00">attachment_content_type :String</text>
<text text-anchor="start" x="360" y="-118.4" font-family="Times Roman,serif" font-size="14.00">attachment_file_name :String</text>
<text text-anchor="start" x="360" y="-100.4" font-family="Times Roman,serif" font-size="14.00">attachment_file_size :Integer</text>
<text text-anchor="start" x="360" y="-82.4" font-family="Times Roman,serif" font-size="14.00">attachment_updated_at :DateTime</text>
<text text-anchor="start" x="360" y="-64.4" font-family="Times Roman,serif" font-size="14.00">container :Object</text>
<text text-anchor="start" x="360" y="-46.4" font-family="Times Roman,serif" font-size="14.00">container_identifier :String</text>
<text text-anchor="start" x="360" y="-28.4" font-family="Times Roman,serif" font-size="14.00">event_id :Object</text>
<text text-anchor="start" x="360" y="-10.4" font-family="Times Roman,serif" font-size="14.00">is_primary :Boolean</text>
</g>
<!-- Admin -->
<g id="node4" class="node"><title>Admin</title>
<polyline fill="none" stroke="black" points="597,-1087 799,-1087 "/>
<path fill="none" stroke="black" d="M799,-1087C805,-1087 811,-1093 811,-1099"/>
<polyline fill="none" stroke="black" points="811,-1099 811,-1325 "/>
<path fill="none" stroke="black" d="M811,-1325C811,-1331 805,-1337 799,-1337"/>
<polyline fill="none" stroke="black" points="799,-1337 597,-1337 "/>
<path fill="none" stroke="black" d="M597,-1337C591,-1337 585,-1331 585,-1325"/>
<polyline fill="none" stroke="black" points="585,-1325 585,-1099 "/>
<path fill="none" stroke="black" d="M585,-1099C585,-1093 591,-1087 597,-1087"/>
<text text-anchor="middle" x="698" y="-1320.4" font-family="Times Roman,serif" font-size="14.00">Admin</text>
<polyline fill="none" stroke="black" points="585,-1311 811,-1311 "/>
<text text-anchor="start" x="593" y="-1294.4" font-family="Times Roman,serif" font-size="14.00">_id :Moped::BSON::ObjectId</text>
<text text-anchor="start" x="593" y="-1276.4" font-family="Times Roman,serif" font-size="14.00">_type :String</text>
<text text-anchor="start" x="593" y="-1258.4" font-family="Times Roman,serif" font-size="14.00">current_sign_in_at :Time</text>
<text text-anchor="start" x="593" y="-1240.4" font-family="Times Roman,serif" font-size="14.00">current_sign_in_ip :String</text>
<text text-anchor="start" x="593" y="-1222.4" font-family="Times Roman,serif" font-size="14.00">email :String</text>
<text text-anchor="start" x="593" y="-1204.4" font-family="Times Roman,serif" font-size="14.00">encrypted_password :String</text>
<text text-anchor="start" x="593" y="-1186.4" font-family="Times Roman,serif" font-size="14.00">last_sign_in_at :Time</text>
<text text-anchor="start" x="593" y="-1168.4" font-family="Times Roman,serif" font-size="14.00">last_sign_in_ip :String</text>
<text text-anchor="start" x="593" y="-1150.4" font-family="Times Roman,serif" font-size="14.00">remember_created_at :Time</text>
<text text-anchor="start" x="593" y="-1132.4" font-family="Times Roman,serif" font-size="14.00">reset_password_sent_at :Time</text>
<text text-anchor="start" x="593" y="-1114.4" font-family="Times Roman,serif" font-size="14.00">reset_password_token :String</text>
<text text-anchor="start" x="593" y="-1096.4" font-family="Times Roman,serif" font-size="14.00">sign_in_count :Integer</text>
</g>
<!-- Organizer&#45;&gt;Event -->
<g id="edge10" class="edge"><title>Organizer&#45;&gt;Event</title>
<path fill="none" stroke="#df0885" d="M188.643,-790.904C241.366,-737.902 309.585,-669.322 366.863,-611.741"/>
<ellipse fill="none" stroke="#df0885" cx="185.523" cy="-794.04" rx="4.00002" ry="4.00002"/>
<polygon fill="#df0885" stroke="#df0885" points="367.097,-611.505 377.34,-607.589 370.624,-607.96 374.15,-604.416 374.15,-604.416 374.15,-604.416 370.624,-607.96 370.959,-601.242 367.097,-611.505 367.097,-611.505"/>
</g>
<!-- Event&#45;&gt;User -->
<g id="edge14" class="edge"><title>Event&#45;&gt;User</title>
<path fill="none" stroke="#0ce7e6" d="M592.279,-663.537C640.836,-758.163 676.637,-877.115 627,-976 614.319,-1001.26 594.933,-993.011 576,-1014 575.472,-1014.58 574.946,-1015.17 574.42,-1015.76"/>
<polygon fill="#0ce7e6" stroke="#0ce7e6" points="592.167,-663.324 591.532,-652.376 589.855,-658.891 587.542,-654.457 587.542,-654.457 587.542,-654.457 589.855,-658.891 583.553,-656.539 592.167,-663.324 592.167,-663.324"/>
<polygon fill="#0ce7e6" stroke="#0ce7e6" points="574.2,-1016.02 564.253,-1020.64 570.928,-1019.8 567.656,-1023.58 567.656,-1023.58 567.656,-1023.58 570.928,-1019.8 571.059,-1026.52 574.2,-1016.02 574.2,-1016.02"/>
<text text-anchor="middle" x="691" y="-873.4" font-family="Times Roman,serif" font-size="14.00">participants</text>
</g>
<!-- Event&#45;&gt;Asset -->
<g id="edge12" class="edge"><title>Event&#45;&gt;Asset</title>
<path fill="none" stroke="#83c96d" d="M481,-246.557C481,-239.367 481,-232.288 481,-225.365"/>
<ellipse fill="none" stroke="#83c96d" cx="481" cy="-250.787" rx="4" ry="4"/>
<polygon fill="#83c96d" stroke="#83c96d" points="481,-225.338 485.5,-215.338 481,-220.338 481,-215.338 481,-215.338 481,-215.338 481,-220.338 476.5,-215.338 481,-225.338 481,-225.338"/>
</g>
</g>
</svg>
