<?xml version="1.0" encoding="UTF-8" standalone="no"?>
<!DOCTYPE svg PUBLIC "-//W3C//DTD SVG 1.1//EN"
 "http://www.w3.org/Graphics/SVG/1.1/DTD/svg11.dtd">
<!-- Generated by graphviz version 2.26.3 (20100126.1600)
 -->
<!-- Title: models_diagram Pages: 1 -->
<svg width="528pt" height="312pt"
 viewBox="0.00 0.00 528.00 312.00" xmlns="http://www.w3.org/2000/svg" xmlns:xlink="http://www.w3.org/1999/xlink">
<g id="graph1" class="graph" transform="scale(1 1) rotate(0) translate(4 308)">
<title>models_diagram</title>
<polygon fill="white" stroke="white" points="-4,5 -4,-308 525,-308 525,5 -4,5"/>
<!-- _diagram_info -->
<g id="node1" class="node"><title>_diagram_info</title>
<text text-anchor="start" x="8" y="-288.3" font-family="Times Roman,serif" font-size="13.00">Models diagram</text>
<text text-anchor="start" x="8" y="-271.3" font-family="Times Roman,serif" font-size="13.00">Date: Dec 07 2012 &#45; 19:15</text>
<text text-anchor="start" x="8" y="-254.3" font-family="Times Roman,serif" font-size="13.00">Generated by RailRoady 1.1.0</text>
<text text-anchor="start" x="8" y="-237.3" font-family="Times Roman,serif" font-size="13.00">http://railroady.prestonlee.com</text>
</g>
<!-- User -->
<g id="node2" class="node"><title>User</title>
<ellipse fill="none" stroke="black" cx="262" cy="-266" rx="33.9411" ry="18.3848"/>
<text text-anchor="middle" x="262" y="-262.4" font-family="Times Roman,serif" font-size="14.00">User</text>
</g>
<!-- Organizer -->
<g id="node5" class="node"><title>Organizer</title>
<ellipse fill="none" stroke="black" cx="61" cy="-171" rx="60.8112" ry="18.3848"/>
<text text-anchor="middle" x="61" y="-167.4" font-family="Times Roman,serif" font-size="14.00">Organizer</text>
</g>
<!-- User&#45;&gt;Organizer -->
<g id="edge6" class="edge"><title>User&#45;&gt;Organizer</title>
<path fill="none" stroke="#03f53a" d="M238.325,-242.254C232.352,-237.086 225.717,-231.981 219,-228 200.672,-217.138 151.793,-200.106 113.209,-187.486"/>
<polygon fill="#03f53a" stroke="#03f53a" points="238.608,-242.511 242.977,-252.569 242.306,-245.876 246.005,-249.24 246.005,-249.24 246.005,-249.24 242.306,-245.876 249.033,-245.911 238.608,-242.511 238.608,-242.511"/>
<polygon fill="#03f53a" stroke="#03f53a" points="113.157,-187.469 105.037,-180.099 108.402,-185.924 103.647,-184.379 103.647,-184.379 103.647,-184.379 108.402,-185.924 102.256,-188.659 113.157,-187.469 113.157,-187.469"/>
</g>
<!-- Service -->
<g id="node6" class="node"><title>Service</title>
<ellipse fill="none" stroke="black" cx="187" cy="-171" rx="46.8775" ry="18.3848"/>
<text text-anchor="middle" x="187" y="-167.4" font-family="Times Roman,serif" font-size="14.00">Service</text>
</g>
<!-- User&#45;&gt;Service -->
<g id="edge2" class="edge"><title>User&#45;&gt;Service</title>
<path fill="none" stroke="#6a8bc1" d="M243.286,-242.296C232.379,-228.481 218.614,-211.045 207.427,-196.874"/>
<ellipse fill="none" stroke="#6a8bc1" cx="245.765" cy="-245.436" rx="4.00002" ry="4.00002"/>
<polygon fill="#6a8bc1" stroke="#6a8bc1" points="207.375,-196.808 204.711,-186.171 204.277,-192.884 201.179,-188.959 201.179,-188.959 201.179,-188.959 204.277,-192.884 197.647,-191.748 207.375,-196.808 207.375,-196.808"/>
</g>
<!-- Event -->
<g id="node7" class="node"><title>Event</title>
<ellipse fill="none" stroke="black" cx="285" cy="-95" rx="39.8075" ry="18.3848"/>
<text text-anchor="middle" x="285" y="-91.4" font-family="Times Roman,serif" font-size="14.00">Event</text>
</g>
<!-- User&#45;&gt;Event -->
<g id="edge4" class="edge"><title>User&#45;&gt;Event</title>
<path fill="none" stroke="#fbe197" d="M265.624,-239.056C269.852,-207.623 276.813,-155.871 281.139,-123.703"/>
<ellipse fill="none" stroke="#fbe197" cx="265.038" cy="-243.41" rx="4.00001" ry="4.00001"/>
<polygon fill="#fbe197" stroke="#fbe197" points="281.165,-123.513 286.958,-114.202 281.831,-118.558 282.498,-113.603 282.498,-113.603 282.498,-113.603 281.831,-118.558 278.038,-113.003 281.165,-123.513 281.165,-123.513"/>
</g>
<!-- User&#45;&gt;Event -->
<g id="edge8" class="edge"><title>User&#45;&gt;Event</title>
<path fill="none" stroke="#4e297c" d="M273.75,-238.17C277.141,-229.293 280.575,-219.347 283,-210 286.47,-196.626 291.585,-156.729 293,-134 293.21,-130.62 293.047,-127.105 292.646,-123.63"/>
<polygon fill="#4e297c" stroke="#4e297c" points="273.679,-238.351 265.813,-245.992 271.838,-243 269.997,-247.649 269.997,-247.649 269.997,-247.649 271.838,-243 274.181,-249.305 273.679,-238.351 273.679,-238.351"/>
<polygon fill="#4e297c" stroke="#4e297c" points="292.597,-123.353 295.293,-112.723 291.729,-118.428 290.861,-113.504 290.861,-113.504 290.861,-113.504 291.729,-118.428 286.43,-114.285 292.597,-123.353 292.597,-123.353"/>
<text text-anchor="middle" x="359" y="-167.4" font-family="Times Roman,serif" font-size="14.00">participated_events</text>
</g>
<!-- Asset -->
<g id="node3" class="node"><title>Asset</title>
<ellipse fill="none" stroke="black" cx="285" cy="-19" rx="38.1838" ry="18.3848"/>
<text text-anchor="middle" x="285" y="-15.4" font-family="Times Roman,serif" font-size="14.00">Asset</text>
</g>
<!-- Admin -->
<g id="node4" class="node"><title>Admin</title>
<ellipse fill="none" stroke="black" cx="356" cy="-266" rx="41.9273" ry="18.3848"/>
<text text-anchor="middle" x="356" y="-262.4" font-family="Times Roman,serif" font-size="14.00">Admin</text>
</g>
<!-- Organizer&#45;&gt;Event -->
<g id="edge10" class="edge"><title>Organizer&#45;&gt;Event</title>
<path fill="none" stroke="#e44960" d="M109.403,-154.578C149.117,-141.103 204.786,-122.215 242.728,-109.342"/>
<ellipse fill="none" stroke="#e44960" cx="105.613" cy="-155.864" rx="4.00001" ry="4.00001"/>
<polygon fill="#e44960" stroke="#e44960" points="242.981,-109.257 253.896,-110.305 247.716,-107.65 252.45,-106.044 252.45,-106.044 252.45,-106.044 247.716,-107.65 251.005,-101.782 242.981,-109.257 242.981,-109.257"/>
</g>
<!-- Event&#45;&gt;User -->
<g id="edge14" class="edge"><title>Event&#45;&gt;User</title>
<path fill="none" stroke="#8a65f5" d="M330.272,-106.65C368.605,-117.538 419.165,-134.675 431,-152 440.526,-165.946 441.072,-176.443 431,-190 396.119,-236.953 356.096,-199.531 305,-228 298.059,-231.867 291.27,-237.013 285.211,-242.265"/>
<polygon fill="#8a65f5" stroke="#8a65f5" points="329.96,-106.563 321.53,-99.5493 325.142,-105.224 320.325,-103.885 320.325,-103.885 320.325,-103.885 325.142,-105.224 319.12,-108.221 329.96,-106.563 329.96,-106.563"/>
<polygon fill="#8a65f5" stroke="#8a65f5" points="284.824,-242.62 274.414,-246.067 281.14,-246.002 277.457,-249.383 277.457,-249.383 277.457,-249.383 281.14,-246.002 280.5,-252.698 284.824,-242.62 284.824,-242.62"/>
<text text-anchor="middle" x="479" y="-167.4" font-family="Times Roman,serif" font-size="14.00">participants</text>
</g>
<!-- Event&#45;&gt;Asset -->
<g id="edge12" class="edge"><title>Event&#45;&gt;Asset</title>
<path fill="none" stroke="#f7ab1c" d="M285,-68.0731C285,-61.4485 285,-54.332 285,-47.6302"/>
<ellipse fill="none" stroke="#f7ab1c" cx="285" cy="-72.2135" rx="4" ry="4"/>
<polygon fill="#f7ab1c" stroke="#f7ab1c" points="285,-47.5704 289.5,-37.5704 285,-42.5704 285,-37.5704 285,-37.5704 285,-37.5704 285,-42.5704 280.5,-37.5705 285,-47.5704 285,-47.5704"/>
</g>
</g>
</svg>
